<svg xmlns="http://www.w3.org/2000/svg" viewBox="0 0 64 64">
  <title>duplicate</title>
  <g>
    <path d="M27.2703,47.76567a8.94523,8.94523,0,0,1-8.93388-8.93388V17.28537H14.65776A5.78555,5.78555,0,0,0,8.877,23.06612V51.44433a5.78554,5.78554,0,0,0,5.78074,5.78074H40.93388a5.78555,5.78555,0,0,0,5.78075-5.78074V47.76567Z"/>
    <path d="M55.123,12.55567a5.78016,5.78016,0,0,0-5.78074-5.78074H27.2703a5.78016,5.78016,0,0,0-5.78075,5.78074V38.83179a5.78016,5.78016,0,0,0,5.78075,5.78075H49.34224A5.78016,5.78016,0,0,0,55.123,38.83179Z"/>
  </g>
</svg>
