<svg xmlns="http://www.w3.org/2000/svg" viewBox="0 0 64 64">
  <title>edit</title>
  <g>
    <path d="M37.91449,15.27016,10.23167,42.955a1.10324,1.10324,0,0,0-.28773.50561L6.87557,55.7764A1.08956,1.08956,0,0,0,7.93228,57.13a1.08279,1.08279,0,0,0,.26378-.03272l12.3158-3.06878a1.08848,1.08848,0,0,0,.50561-.28732L48.70269,26.05836Z"/>
    <path d="M55.561,11.49545,52.4794,8.4139a5.58006,5.58006,0,0,0-7.70625,0l-3.77472,3.77472,10.78781,10.7878L55.561,19.20171a5.45055,5.45055,0,0,0,0-7.70626Z"/>
  </g>
</svg>
