<svg xmlns="http://www.w3.org/2000/svg" viewBox="0 0 512 512"><title>glyph</title><path d="M20.74671,158a20.74719,20.74719,0,0,0,20.7467-20.74671V41.49341h95.75988a20.74671,20.74671,0,1,0,0-41.49341H20.74671A20.74719,20.74719,0,0,0,0,20.74671V137.25329A20.7463,20.7463,0,0,0,20.74671,158Z" style="fill:#506b88"/><path d="M491.25329,0H374.74673a20.7467,20.7467,0,1,0,0,41.49341h95.75986v95.75988a20.7467,20.7467,0,1,0,41.49341,0V20.74671A20.74719,20.74719,0,0,0,491.25329,0Z" style="fill:#506b88"/><path d="M491.25329,354a20.74719,20.74719,0,0,0-20.7467,20.74671v95.75986H374.74673a20.74671,20.74671,0,1,0,0,41.49341H491.25329A20.7472,20.7472,0,0,0,512,491.25329V374.74673A20.7463,20.7463,0,0,0,491.25329,354Z" style="fill:#506b88"/><path d="M137.25329,470.50659H41.49341V374.74673a20.74671,20.74671,0,1,0-41.49341,0V491.25329A20.74719,20.74719,0,0,0,20.74671,512H137.25329a20.7467,20.7467,0,1,0,0-41.49341Z" style="fill:#506b88"/><path d="M397.765,202.70075v-82.0567a7.37329,7.37329,0,0,0-7.38015-7.37151H121.61515a7.3733,7.3733,0,0,0-7.38016,7.37151v82.0567a7.37514,7.37514,0,0,0,7.38016,7.38017H160.8028a7.37329,7.37329,0,0,0,7.3715-7.38017V174.592a7.38068,7.38068,0,0,1,7.38017-7.38017h46.09138A7.37514,7.37514,0,0,1,229.026,174.592V377.408a7.37514,7.37514,0,0,1-7.38017,7.38016H201.489a7.37514,7.37514,0,0,0-7.38017,7.38016v39.18763a7.3733,7.3733,0,0,0,7.38017,7.37151H310.511a7.37329,7.37329,0,0,0,7.38015-7.37151V392.1683a7.37513,7.37513,0,0,0-7.38015-7.38016H290.35415A7.37513,7.37513,0,0,1,282.974,377.408V174.592a7.37513,7.37513,0,0,1,7.38015-7.38017h46.09138a7.38067,7.38067,0,0,1,7.38016,7.38017v28.10872a7.37329,7.37329,0,0,0,7.37151,7.38017h39.18763a7.37514,7.37514,0,0,0,7.38016-7.38017Z" style="fill:#506b88"/></svg>