<svg xmlns="http://www.w3.org/2000/svg" viewBox="0 0 23 20.02971"><title>Untitled-1</title><path d="M25,5.98515H7A2.31632,2.31632,0,0,0,4.5,8.05707,2.31636,2.31636,0,0,0,7,10.129H25a2.31636,2.31636,0,0,0,2.5-2.07193A2.31632,2.31632,0,0,0,25,5.98515Z" transform="translate(-4.5 -5.98515)" style="fill:#506b88"/><path d="M25,13.92807H7A2.31633,2.31633,0,0,0,4.5,16,2.31636,2.31636,0,0,0,7,18.07193H25A2.31636,2.31636,0,0,0,27.5,16,2.31633,2.31633,0,0,0,25,13.92807Z" transform="translate(-4.5 -5.98515)" style="fill:#506b88"/><path d="M25,21.871H7a2.31632,2.31632,0,0,0-2.5,2.07193A2.31636,2.31636,0,0,0,7,26.01485H25a2.31636,2.31636,0,0,0,2.5-2.07192A2.31632,2.31632,0,0,0,25,21.871Z" transform="translate(-4.5 -5.98515)" style="fill:#506b88"/></svg>
