<svg xmlns="http://www.w3.org/2000/svg" viewBox="0 0 68.93009 68.94107"><title>mask</title><circle cx="34.46505" cy="34.47053" r="34.46505" style="fill:#cad6e0"/><path d="M67.32216,18.6227l-1.0314.327L60.798,19.439l-1.55149,2.47754-1.12575-.3577-4.37136-3.94124-.6342-2.04963L52.266,13.38233,49.51852,10.918l-3.24121-.6342-.07461,1.48345,3.17538,3.09858L50.93176,16.696l-1.74679.9129-1.422-.41914L45.63215,16.301l.07241-1.71826-2.79573-1.14989-.92826,4.04-2.81768.63859.27869,2.25371,3.67133.70661.6342-3.6011,3.03055.44767,1.40884.82511h2.26029L51.99388,21.842l4.10144,4.16069L55.79468,27.62l-3.307-.42134-5.71437,2.88571-4.11461,4.93534-.53544,2.18568H40.64634L37.8945,35.937l-2.67285,1.2684.66492,2.81988,1.16306-1.34082,2.04523-.06364-.14263,2.53241,1.69411.49594,1.69193,1.9004,2.76282-.77684,3.15563.49814,3.66475.98531,1.83017.21506,3.103,3.5221,5.98868,3.5221-3.87322,7.39971-4.08827,1.9004L53.3303,65.04423l-5.91625,3.95-.62981,2.27785A34.42511,34.42511,0,0,0,67.32216,18.6227Z" transform="translate(-4.22932 -3.33172)" style="fill:#506b88"/><path d="M42.65646,55.81655,40.146,51.16211l2.30418-4.80147L40.146,45.67158l-2.58727-2.59824-5.73192-1.28595-1.90259-3.98075v2.36343h-.83828l-4.93973-6.69748v-5.5015l-3.62085-5.88773-5.74948,1.02481H10.90267L8.954,21.831l2.48632-1.97063-2.47974.57276a34.42291,34.42291,0,0,0,29.7327,51.83966,36.087,36.087,0,0,0,4.32528-.30064l-.35989-4.17605s1.5822-6.20154,1.5822-6.41221C44.23867,61.171,42.65646,55.81655,42.65646,55.81655Z" transform="translate(-4.22932 -3.33172)" style="fill:#506b88"/><path d="M17.03618,14.44665l6.12253-.85365,2.82207-1.54709,3.17538.91509,5.07359-.28089,1.738-2.7321,2.5346.41695,6.15545-.57715,1.69631-1.86967,2.392-1.59757,3.38385.50912,1.23329-.18653a34.35694,34.35694,0,0,0-41.25141,9.22111h.01756Zm23.112-7.68719,3.51991-1.9377,2.26029,1.3057L42.65646,8.61817l-3.1249.31381-1.40665-.9129Zm-10.42587.28309,1.55368.64736,2.03426-.64736,1.1082,1.92015L29.72233,10.196l-2.2581-1.32106C27.462,8.87492,29.67186,7.45291,29.72233,7.04255Z" transform="translate(-4.22932 -3.33172)" style="fill:#506b88"/></svg>