<svg xmlns="http://www.w3.org/2000/svg" viewBox="0 0 10.99022 14.42819"><title>Untitled-3</title><path d="M10,2.7859A5.50146,5.50146,0,0,0,4.50489,8.281a5.4459,5.4459,0,0,0,1.0962,3.29425l4.06019,5.46836c.01014.01325.02564.01832.03691.03016a.409.409,0,0,0,.64025-.03016c1.16919-1.56,3.31229-4.47361,4.13627-5.57263l.00057-.00141.00507-.00676A5.49526,5.49526,0,0,0,10,2.7859Zm0,8.45966A2.96455,2.96455,0,1,1,12.96454,8.281,2.97217,2.97217,0,0,1,10,11.24556Z" transform="translate(-4.50489 -2.7859)" style="fill:#506b88"/></svg>
