<svg xmlns="http://www.w3.org/2000/svg" viewBox="0 0 438.52899 438.52196"><title>refresh</title><path d="M433.109,23.691a17.92756,17.92756,0,0,0-25.695,0L370.301,60.526a221.13454,221.13454,0,0,0-69.948-44.684A215.4618,215.4618,0,0,0,219.266,0Q140.75,0,82.224,47.536,23.6925,95.0695,5.137,171.584v1.997a8.77179,8.77179,0,0,0,2.712,6.423,8.7766,8.7766,0,0,0,6.423,2.712H71.086q6.2835,0,8.566-6.565,11.9895-28.548,15.131-33.403A145.61974,145.61974,0,0,1,219.262,73.083q57.39153,0,99.645,39.115l-39.406,39.397a18.27352,18.27352,0,0,0,12.854,31.122H420.261a18.51746,18.51746,0,0,0,18.268-18.271V36.539A17.529,17.529,0,0,0,433.109,23.691Z" style="fill:#506b88"/><path d="M422.253,255.81H367.437q-6.282,0-8.562,6.566-11.985,28.551-15.129,33.4a145.60477,145.60477,0,0,1-124.48,69.662,142.49034,142.49034,0,0,1-53.387-10.273,147.3905,147.3905,0,0,1-45.966-29.13l39.115-39.112a18.27865,18.27865,0,0,0-12.847-31.125H18.274a17.55382,17.55382,0,0,0-12.851,5.431A17.55473,17.55473,0,0,0,0,274.077V401.984a17.55925,17.55925,0,0,0,5.424,12.847,17.59925,17.59925,0,0,0,12.851,5.428,17.58638,17.58638,0,0,0,12.847-5.428l36.829-36.833a218.02,218.02,0,0,0,69.523,44.823,213.818,213.818,0,0,0,80.653,15.701q78.23247,0,136.471-47.534,58.242-47.532,76.52-124.05a4.89548,4.89548,0,0,0,.281-1.995,9.2567,9.2567,0,0,0-9.146-9.133Z" style="fill:#506b88"/></svg>