<svg xmlns="http://www.w3.org/2000/svg" xmlns:xlink="http://www.w3.org/1999/xlink" viewBox="0 0 27.53281 30"><defs><linearGradient id="a" x1="0.49399" y1="28.85463" x2="22.88123" y2="6.46739" gradientUnits="userSpaceOnUse"><stop offset="0" stop-color="#6fba82"/><stop offset="0.03718" stop-color="#6eb785"/><stop offset="0.82679" stop-color="#5073b8"/><stop offset="1" stop-color="#5073b8"/></linearGradient><linearGradient id="b" x1="10.23949" y1="24.62153" x2="10.23949" y2="12.94218" gradientUnits="userSpaceOnUse"><stop offset="0" stop-opacity="0"/><stop offset="0.54553" stop-opacity="0.68139"/><stop offset="0.62455"/></linearGradient><linearGradient id="c" x1="17.09158" y1="0.00008" x2="17.09158" y2="15.09873" gradientUnits="userSpaceOnUse"><stop offset="0.25507" stop-opacity="0"/><stop offset="0.88193" stop-opacity="0.6289"/><stop offset="0.9823"/></linearGradient><radialGradient id="d" cx="16.13541" cy="27.31076" r="3.45855" gradientUnits="userSpaceOnUse"><stop offset="0"/><stop offset="0.68891" stop-color="#030303" stop-opacity="0.218"/><stop offset="0.88407" stop-opacity="0"/></radialGradient><linearGradient id="e" x1="2.25521" y1="2.93172" x2="25.83467" y2="26.51118" gradientUnits="userSpaceOnUse"><stop offset="0" stop-color="#ef4e7b"/><stop offset="0.13044" stop-color="#f0547b"/><stop offset="0.30383" stop-color="#f1657c"/><stop offset="0.50138" stop-color="#f4807c"/><stop offset="0.71679" stop-color="#f8a77d"/><stop offset="0.94435" stop-color="#fed87f"/><stop offset="1" stop-color="#ffe57f"/></linearGradient><radialGradient id="f" cx="9.01565" cy="2.68929" r="3.45855" xlink:href="#d"/></defs><title>StudioDesign</title><path d="M18.76919,24.6215H9.32246l9.66606-9.50715-1.88736-1.9189,1.90323,1.90326A8.84463,8.84463,0,0,0,12.75028,0H9.928a2.68924,2.68924,0,0,0,0,5.37848h2.82224a3.46607,3.46607,0,0,1,2.45166,5.91624L.86757,25.39345l.00067.00066A2.6883,2.6883,0,0,0,2.7533,30H18.76919a2.68924,2.68924,0,1,0,0-5.37848Z" style="fill:url(#a)"/><polygon points="9.242 24.622 1.571 24.622 13.446 12.942 18.908 15.114 9.242 24.622" style="opacity:0.58;fill:url(#b)"/><path d="M18.92339,15.09873,13.446,12.94218l1.67417-1.64655a3.46388,3.46388,0,0,0-2.4509-5.91708V.00008a8.839,8.839,0,0,1,6.25411,15.09865Z" style="fill:url(#c)"/><path d="M16.81443,30h-1.358a2.68924,2.68924,0,1,1,0-5.37847h1.358a2.68924,2.68924,0,1,1,0,5.37847Z" style="opacity:0.85;fill:url(#d)"/><path d="M18.76489,12.31271v-.00195H8.8446a3.46614,3.46614,0,0,1,0-6.93227h3.82469V0H8.8446a8.84367,8.84367,0,0,0-.09081,17.68689v.0023H18.6882a3.46613,3.46613,0,1,1,0,6.93225H17.09159a2.68924,2.68924,0,0,0,0,5.37848H18.6882a8.84378,8.84378,0,0,0,.07669-17.68724Z" style="fill:url(#e)"/><path d="M9.69467,5.37853h-1.358a2.68924,2.68924,0,0,1,0-5.37848h1.358a2.68924,2.68924,0,0,1,0,5.37848Z" style="fill:url(#f)"/><path d="M12.56628,5.37853H9.744a2.68924,2.68924,0,0,1,0-5.37848h2.82224a2.68924,2.68924,0,0,1,0,5.37848Z" style="fill:#5073b8"/></svg>
