<svg xmlns="http://www.w3.org/2000/svg" viewBox="0 0 438.52899 297.76837"><title>split</title><path d="M19.07978,87.74977H171.61472a19.07979,19.07979,0,0,1,19.07979,19.07979v84.10925a19.07979,19.07979,0,0,1-19.07979,19.07979H19.07978A19.07978,19.07978,0,0,1,0,190.93882V106.82955A19.07978,19.07978,0,0,1,19.07978,87.74977Z" style="fill:#506b88"/><path d="M266.91425,87.74977h152.535A19.07977,19.07977,0,0,1,438.529,106.82954v84.10927A19.07979,19.07979,0,0,1,419.4492,210.0186h-152.535a19.07977,19.07977,0,0,1-19.07977-19.07977V106.82955A19.07978,19.07978,0,0,1,266.91425,87.74977Z" style="fill:#506b88"/><rect x="205.2645" y="37.88419" width="28" height="222" rx="10.62605" style="fill:#506b88"/></svg>