<svg xmlns="http://www.w3.org/2000/svg" viewBox="0 0 430.47775 430.47682"><title>storage</title><path d="M219.2645,4.02257C115.60053,4.02257,4.02562,22.3952,4.02562,62.724v68.48529c0,50.24568,128.7148,68.4853,215.23888,68.4853s215.23887-18.23872,215.23887-68.4853V62.724C434.50245,22.3952,322.92844,4.02257,219.2645,4.02257Zm0,97.836c-113.944,0-176.10428-25.85431-176.10428-39.13459S105.32045,23.58941,219.2645,23.58941,395.36876,49.4428,395.36876,62.724C395.36876,76.00427,333.20854,101.85859,219.2645,101.85859Z" transform="translate(-4.02562 -4.02257)" style="fill:#506b88"/><path d="M419.7161,299.099c-60.76789,36.18761-182.53391,37.56435-200.4516,37.56435S79.58078,335.28572,18.81289,299.099a9.68092,9.68092,0,0,0-14.78727,8.26041V366.0141c0,44.96253,108.27845,68.48529,215.23888,68.48529s215.23887-23.52276,215.23887-68.48529V307.35945A9.68124,9.68124,0,0,0,419.7161,299.099Z" transform="translate(-4.02562 -4.02257)" style="fill:#506b88"/><path d="M419.7161,181.69619c-60.76789,36.18759-182.53391,37.56433-200.4516,37.56433S79.58078,217.88287,18.81289,181.69619a9.68091,9.68091,0,0,0-14.78727,8.26039v58.65464c0,50.24567,128.7148,68.48529,215.23888,68.48529s215.23887-18.23872,215.23887-68.48529V189.95657A9.68123,9.68123,0,0,0,419.7161,181.69619Z" transform="translate(-4.02562 -4.02257)" style="fill:#506b88"/></svg>