<svg xmlns="http://www.w3.org/2000/svg" viewBox="0 0 64 64">
  <title>Untitled-5</title>
  <g>
    <path d="M8.91476,23.31885A2.17733,2.17733,0,0,0,11.092,21.14158V11.092H21.14158a2.17727,2.17727,0,1,0,0-4.35454H8.91476A2.17731,2.17731,0,0,0,6.73749,8.91476V21.14158A2.17722,2.17722,0,0,0,8.91476,23.31885Z"/>
    <path d="M55.08524,6.73749H42.85842a2.17727,2.17727,0,0,0,0,4.35454H52.908V21.14158a2.17727,2.17727,0,1,0,4.35454,0V8.91476A2.17731,2.17731,0,0,0,55.08524,6.73749Z"/>
    <path d="M55.08524,40.68115A2.17733,2.17733,0,0,0,52.908,42.85842V52.908H42.85842a2.17727,2.17727,0,1,0,0,4.35454H55.08524a2.17731,2.17731,0,0,0,2.17727-2.17727V42.85842A2.17722,2.17722,0,0,0,55.08524,40.68115Z"/>
    <path d="M21.14158,52.908H11.092V42.85842a2.17727,2.17727,0,1,0-4.35454,0V55.08524a2.17731,2.17731,0,0,0,2.17727,2.17727H21.14158a2.17727,2.17727,0,1,0,0-4.35454Z"/>
    <path d="M48.15025,24.8645v-8.652a.8106.8106,0,0,0-.84077-.77724h-30.619a.8106.8106,0,0,0-.84077.77724v8.652a.81073.81073,0,0,0,.84077.77816h4.46436a.81045.81045,0,0,0,.83978-.77816V21.90075a.81136.81136,0,0,1,.84077-.77816h5.25085a.81073.81073,0,0,1,.84077.77816V43.28544a.81073.81073,0,0,1-.84077.77816H25.79a.81073.81073,0,0,0-.84077.77816v4.1319a.8106.8106,0,0,0,.84077.77724H38.21a.8106.8106,0,0,0,.84077-.77724v-4.1319A.81073.81073,0,0,0,38.21,44.0636H35.91372a.81073.81073,0,0,1-.84077-.77816V21.90075a.81073.81073,0,0,1,.84077-.77816h5.25085a.81136.81136,0,0,1,.84077.77816V24.8645a.81045.81045,0,0,0,.83978.77816h4.46436a.81072.81072,0,0,0,.84076-.77816Z"/>
  </g>
</svg>
