<svg xmlns="http://www.w3.org/2000/svg" viewBox="0 0 64 64">
  <title>Untitled-6</title>
  <g>
    <path d="M56.53455,9.5621a2.05684,2.05684,0,0,0-2.948,0l-4.258,4.22611a25.37079,25.37079,0,0,0-8.02519-5.12663A24.72006,24.72006,0,0,0,32.00017,6.844a24.18814,24.18814,0,0,0-15.72294,5.45384A25.54751,25.54751,0,0,0,7.433,26.53v.22912a1.06267,1.06267,0,0,0,1.04807,1.04807h6.51831a.98312.98312,0,0,0,.98279-.75321,39.60086,39.60086,0,0,1,1.736-3.83236,16.70709,16.70709,0,0,1,14.28157-7.99272,16.27552,16.27552,0,0,1,11.43235,4.4877L38.911,24.23663a2.09654,2.09654,0,0,0,1.47475,3.57065H55.06049a2.12452,2.12452,0,0,0,2.0959-2.09625V11.03616A2.01108,2.01108,0,0,0,56.53455,9.5621Z"/>
    <path d="M55.289,36.1933H49a.98189.98189,0,0,0-.98233.75332,39.63527,39.63527,0,0,1-1.73576,3.832A16.70532,16.70532,0,0,1,32.00017,48.771,16.348,16.348,0,0,1,25.875,47.59237a16.91031,16.91031,0,0,1-5.27372-3.3421l4.4877-4.48736a2.09712,2.09712,0,0,0-1.474-3.571H8.9402a2.12652,2.12652,0,0,0-2.09659,2.09716V52.964a2.12614,2.12614,0,0,0,2.0967,2.0967,2.0177,2.0177,0,0,0,1.474-.62276L14.63968,50.212a25.01354,25.01354,0,0,0,7.97643,5.14258A24.53151,24.53151,0,0,0,31.86949,57.156a24.01394,24.01394,0,0,0,15.65743-5.45361A25.4586,25.4586,0,0,0,56.30612,37.47a.56157.56157,0,0,0,.03224-.22889A1.062,1.062,0,0,0,55.289,36.1933Z"/>
  </g>
</svg>
