<svg xmlns="http://www.w3.org/2000/svg" viewBox="0 0 16.97371 19.75956"><title>Untitled-3</title><path d="M5.20931,8.28929a3.9648,3.9648,0,0,0-3.96023,3.96023,3.92471,3.92471,0,0,0,.79,2.37411l2.9261,3.941c.00731.00954.01848.0132.0266.02173a.29477.29477,0,0,0,.46142-.02173c.84262-1.1243,2.38711-3.22406,2.98094-4.0161l.0004-.001.00366-.00487A3.96034,3.96034,0,0,0,5.20931,8.28929Zm0,6.09673a2.1365,2.1365,0,1,1,2.1365-2.1365A2.142,2.142,0,0,1,5.20931,14.386Z" transform="translate(-1.24908 -0.24044)" style="fill:#506b88"/><path d="M12.12606.24044A3.96481,3.96481,0,0,0,8.16583,4.20068a3.92468,3.92468,0,0,0,.79,2.3741l2.9261,3.941c.00731.00955.01848.0132.0266.02173a.29477.29477,0,0,0,.46142-.02173c.84262-1.1243,2.38711-3.224,2.98094-4.0161l.00041-.001.00365-.00488A3.96034,3.96034,0,0,0,12.12606.24044Zm0,6.09673a2.1365,2.1365,0,1,1,2.1365-2.13649A2.142,2.142,0,0,1,12.12606,6.33717Z" transform="translate(-1.24908 -0.24044)" style="fill:#506b88"/><path d="M14.26256,9.60185a3.96482,3.96482,0,0,0-3.96024,3.96024,3.92474,3.92474,0,0,0,.79,2.3741l2.9261,3.941c.00731.00955.01848.0132.02661.02173a.29478.29478,0,0,0,.46142-.02173c.84261-1.1243,2.3871-3.22405,2.98093-4.0161l.00041-.001.00365-.00488a3.96033,3.96033,0,0,0-3.2289-6.25331Zm0,6.09673a2.1365,2.1365,0,1,1,2.13649-2.13649A2.142,2.142,0,0,1,14.26256,15.69858Z" transform="translate(-1.24908 -0.24044)" style="fill:#506b88"/></svg>
