<svg xmlns="http://www.w3.org/2000/svg" viewBox="0 0 438.52804 438.52896"><title>cog</title><path d="M436.25048,181.4345a8.9977,8.9977,0,0,0-5.995-3.571l-52.249-7.992a172.03,172.03,0,0,0-11.704-27.98q5.133-7.137,15.41-20.129,10.27651-12.99152,14.561-18.986a10.99451,10.99451,0,0,0,2.279-6.567,9.1901,9.1901,0,0,0-1.998-6.28q-10.272-14.562-47.106-48.536a11.01121,11.01121,0,0,0-7.132-2.854,9.26618,9.26618,0,0,0-6.854,2.567l-40.539,30.549a176.47288,176.47288,0,0,0-25.693-10.565l-7.994-52.529a8.46512,8.46512,0,0,0-3.285-6.139,10.7769,10.7769,0,0,0-6.99706-2.426h-63.38q-8.28,0-10.278,7.993-3.71251,14.2695-8.28,53.1a163.36653,163.36653,0,0,0-25.981,10.853l-39.399-30.549a12.15287,12.15287,0,0,0-7.422-2.854q-6.2805,0-26.979,20.413-20.7,20.418-28.122,30.69-2.571,3.711-2.568,6.567a10.71568,10.71568,0,0,0,2.853,6.851q19.1265,23.13,30.55,39.403a140.791,140.791,0,0,0-11.132,26.265l-53.105,7.992a8.60893,8.60893,0,0,0-5.424,3.715,10.97635,10.97635,0,0,0-2.287,6.563v63.383a10.77978,10.77978,0,0,0,2.284,6.708,8.99216,8.99216,0,0,0,5.996,3.572l52.25,7.71a141.01093,141.01093,0,0,0,11.704,28.257q-5.136,7.14148-15.415,20.129-10.2765,12.99751-14.561,18.986a11.01748,11.01748,0,0,0-2.285,6.57,11.16415,11.16415,0,0,0,1.997,6.561q11.1345,15.426,47.109,47.969a9.83917,9.83917,0,0,0,7.137,3.138,10.27177,10.27177,0,0,0,7.138-2.563l40.259-30.553a177.10195,177.10195,0,0,0,25.697,10.568l7.993,52.529a8.49127,8.49127,0,0,0,3.283,6.14,10.7597,10.7597,0,0,0,6.995,2.423h63.38q8.295,0,10.287-7.994,3.70651-14.271,8.274-53.098a163.044,163.044,0,0,0,25.981-10.855l39.402,30.84a13.93789,13.93789,0,0,0,7.42,2.563q6.279,0,26.833-20.27,20.56347-20.26648,28.264-30.837a9.52712,9.52712,0,0,0,2.569-6.561,10.986,10.986,0,0,0-2.857-7.139q-20.547-25.131-30.546-39.402a183.032,183.032,0,0,0,11.136-25.98l52.817-7.988a8.70353,8.70353,0,0,0,5.708-3.716,11.02125,11.02125,0,0,0,2.279-6.571v-63.376A10.73329,10.73329,0,0,0,436.25048,181.4345Zm-165.304,89.501q-21.4065,21.4155-51.676,21.416-30.26551,0-51.678-21.416-21.408-21.4065-21.411-51.673,0-30.2655,21.411-51.678,21.4155-21.408,51.678-21.411,30.2685,0,51.676,21.411,21.411,21.41551,21.413,51.678Q292.35948,249.525,270.94649,270.9355Z" transform="translate(-0.00048 0.0035)" style="fill:#23374d"/></svg>
