<svg xmlns="http://www.w3.org/2000/svg" viewBox="0 0 64 64">
  <title>erase</title>
  <path d="M55.78149,53.04557H32.08631L55.8227,28.81337h-.00016a6.127,6.127,0,0,0-.0895-8.66509L43.58761,8.2513a6.13449,6.13449,0,0,0-8.66518.08958L10.32082,33.45662a9.72458,9.72458,0,0,0,.142,13.7362l5.97527,5.85275H8.21851a2.22521,2.22521,0,0,0,0,4.45042h47.563a2.22521,2.22521,0,0,0,0-4.45042ZM13.50007,36.57077,24.00385,25.84753l14.54165,14.244L28.04174,50.81473a5.26261,5.26261,0,0,1-7.44262.07694L13.577,44.01356A5.26927,5.26927,0,0,1,13.50007,36.57077Z" style="fill: #0e1a2d"/>
</svg>
