<svg width="479" height="112" viewBox="0 0 241 56" fill="none" xmlns="http://www.w3.org/2000/svg" class="e1od4ure0 css-5mbyzb e17vf40v0"><path class="logo-mark" fill="#2BD7B0" d="M48.8542 20.9558C48.8542 9.03875 38.9065 0 26.131 0C11.8407 0 0.428589 12.0686 0.428589 27.0154C0.428589 43.1236 13.2545 56 30.5242 56C47.7938 56 63.2456 42.3156 64.4576 24.3895H56.5801C55.1156 37.8214 43.7541 48.1227 30.5242 48.1227C17.7992 48.1227 8.35644 38.7809 8.35644 27.0154C8.35644 16.4112 16.2338 7.87735 26.131 7.87735C34.4123 7.87735 40.9263 13.5329 40.9263 20.9558C40.9263 27.1163 36.4827 32.2669 30.5747 32.2669V40.1442C41.0273 40.1442 48.8542 31.4085 48.8542 20.9558Z"></path><path class="logo-text every" fill="#2E3434" d="M167.159 39.467L176.173 17.0415H171.841L166.553 30.7389L161.17 17.0415H156.71L164.419 36.1223L163.591 38.1929C162.89 39.8811 161.711 40.7412 159.928 40.7412C159.099 40.7412 158.239 40.6456 157.443 40.3908V44.1496C158.303 44.3726 159.227 44.5 160.119 44.5C162.89 44.4682 165.725 42.971 167.159 39.467ZM146.441 35.9949V25.6103C146.441 22.393 148.862 20.3225 152.047 20.3225C152.812 20.3225 153.608 20.4499 154.341 20.6729V16.9778C153.608 16.7867 152.875 16.6593 152.111 16.6593C149.467 16.6593 147.205 18.0609 146.218 20.4181V17.0415H142.332V35.9949H146.441ZM130.335 19.6536C132.979 19.6536 135.495 21.31 135.814 24.3999H124.505C125.174 21.6604 127.372 19.6536 130.335 19.6536ZM130.526 33.128C127.054 33.128 124.728 30.8345 124.474 27.5853H139.509V25.9926C139.509 20.4818 135.814 16.5 130.335 16.5C124.951 16.5 120.587 20.5455 120.587 26.5023C120.587 32.4591 124.792 36.5046 130.462 36.5046C135.686 36.5046 138.426 33.128 139.382 29.8152H135.368C134.476 32.0131 132.947 33.1599 130.526 33.128ZM119.759 17.0415H115.618L110.266 31.2167L104.979 17.0415H100.71L108.355 35.9949H112.114L119.759 17.0415ZM90.676 19.6536C93.3199 19.6536 95.8364 21.31 96.155 24.3999H84.8467C85.5156 21.6923 87.7454 19.6536 90.676 19.6536ZM90.8671 33.1598C87.395 33.1598 85.0697 30.8663 84.8148 27.6172H99.8501V26.0245C99.8501 20.5137 96.155 16.5319 90.676 16.5319C85.2926 16.5319 80.9286 20.5774 80.9286 26.5342C80.9286 32.4909 85.1334 36.5364 90.8034 36.5364C96.0276 36.5364 98.767 33.1599 99.7227 29.847H95.7409C94.8489 32.0131 93.3199 33.1598 90.8671 33.1598Z"></path><path class="logo-text dotorg" fill="#2BD7B0" d="M177.224 36.186C178.719 36.186 179.932 34.9737 179.932 33.4784C179.932 31.983 178.719 30.7707 177.224 30.7707C175.729 30.7707 174.516 31.983 174.516 33.4784C174.516 34.9737 175.729 36.186 177.224 36.186Z"></path><path class="logo-text dotorg" fill="#2BD7B0" d="M230.389 20.0995C233.638 20.0995 236.282 22.7116 236.282 26.5342C236.282 30.3567 233.638 32.9687 230.389 32.9687C227.14 32.9687 224.496 30.3567 224.496 26.5342C224.496 22.7116 227.14 20.0995 230.389 20.0995ZM236.027 34.9118C236.027 38.6707 233.702 40.7412 230.262 40.7412C228.573 40.7412 226.248 40.359 223.54 38.607V42.8755C225.26 43.8629 227.904 44.4681 230.262 44.4681C234.881 44.4681 239.945 42.079 239.945 34.8799V17.0415H236.027V19.9403C235.103 17.9972 232.778 16.5 229.752 16.5C224.91 16.5 220.546 20.2907 220.546 26.5023C220.546 32.5865 224.815 36.5046 229.72 36.5046C232.651 36.5046 234.849 35.1985 236.027 33.0961V34.9118ZM210.958 35.9949V25.6103C210.958 22.393 213.379 20.3225 216.564 20.3225C217.329 20.3225 218.125 20.4499 218.858 20.6729V16.9778C218.125 16.7867 217.392 16.6593 216.628 16.6593C213.984 16.6593 211.722 18.0609 210.735 20.4181V17.0415H206.849V35.9949H210.958ZM192.96 32.9368C189.647 32.9368 186.812 30.3885 186.812 26.5023C186.812 22.6161 189.647 20.0677 192.96 20.0677C196.273 20.0677 199.108 22.6161 199.108 26.5023C199.108 30.3885 196.273 32.9368 192.96 32.9368ZM203.09 26.5342C203.09 20.004 197.961 16.5319 192.96 16.5319C187.959 16.5319 182.83 19.9721 182.83 26.5342C182.83 33.1599 187.959 36.5364 192.96 36.5364C197.961 36.5364 203.09 33.128 203.09 26.5342Z"></path></svg>