<svg xmlns="http://www.w3.org/2000/svg" viewBox="0 0 77.38874 75.60451"><title>Untitled-2</title><rect x="2.50001" y="2.5" width="72.38874" height="70.60451" rx="15.03116" style="fill:none;stroke:#506b88;stroke-linecap:round;stroke-linejoin:round;stroke-width:5px"/><path d="M59.8576,73.10449c.426,0,.84485-.029,1.2619-.06372L30.0603,41.98163a8.11066,8.11066,0,0,0-11.47022,0L2.5,58.07171v.00165A15.03116,15.03116,0,0,0,17.53118,73.10449Z" transform="translate(0.00001)" style="fill:#cad6e0;stroke:#506b88;stroke-linecap:round;stroke-linejoin:round;stroke-width:5px"/><path d="M64.0603,49.98163a8.11066,8.11066,0,0,0-11.47022,0l-7.26489,7.26489L61.1195,73.04077c-.41705.03473-.83588.06372-1.2619.06372A15.02267,15.02267,0,0,0,74.66253,60.58386Z" transform="translate(0.00001)" style="fill:#cad6e0;stroke:#506b88;stroke-linecap:round;stroke-linejoin:round;stroke-width:5px"/><circle cx="50.69435" cy="25.10461" r="9.20928" style="fill:#cad6e0;stroke:#506b88;stroke-linecap:round;stroke-linejoin:round;stroke-width:5px"/></svg>
