<svg xmlns="http://www.w3.org/2000/svg" viewBox="0 0 64 64">
  <title>Untitled-4</title>
  <g>
    <path d="M32,6.73754c-12.167,0-25.26251,2.15639-25.26251,6.88977V21.6654c0,5.89732,15.10721,8.0381,25.26251,8.0381s25.26251-2.14067,25.26251-8.0381V13.62731C57.26241,8.89393,44.167,6.73754,32,6.73754Zm0,11.483c-13.37357,0-20.6693-3.03451-20.6693-4.59321S18.62643,9.03409,32,9.03409s20.6693,3.03441,20.6693,4.59322S45.37357,18.22052,32,18.22052Z"/>
    <path d="M55.52694,41.37057C48.39463,45.61789,34.103,45.77948,32,45.77948s-16.39463-.1617-23.52694-4.40891a1.13624,1.13624,0,0,0-1.73557.96952v6.88427c0,5.27724,12.7086,8.0381,25.26251,8.0381s25.26251-2.76086,25.26251-8.0381V42.34009A1.13628,1.13628,0,0,0,55.52694,41.37057Z"/>
    <path d="M55.52694,27.591C48.39463,31.83836,34.103,32,32,32S15.60537,31.83825,8.47306,27.591a1.13624,1.13624,0,0,0-1.73557.96952v6.88428c0,5.89732,15.10721,8.03809,25.26251,8.03809s25.26251-2.14067,25.26251-8.03809V28.56055A1.13628,1.13628,0,0,0,55.52694,27.591Z"/>
  </g>
</svg>
