<svg xmlns="http://www.w3.org/2000/svg" viewBox="0 0 29 29">
<path fill="#515151" d="M14.5,20.9L14.5,20.9L14.5,20.9C14.5,20.9,14.5,20.9,14.5,20.9c-2-0.1-3.3-0.4-5.7-1.9c-2-1.3-3.7-3-4.4-4.1c-0.2-0.2-0.2-0.6,0-0.8C5.1,13,6.7,11.3,8.8,10c2.4-1.6,3.8-1.9,5.7-1.9c0,0,0,0,0,0h0h0c0,0,0,0,0,0c1.9,0.1,3.3,0.4,5.7,1.9c2,1.3,3.7,3,4.4,4.1c0.2,0.3,0.2,0.6,0,0.8c-0.7,1.1-2.4,2.8-4.4,4.1C17.8,20.6,16.5,20.9,14.5,20.9C14.5,20.9,14.5,20.9,14.5,20.9z M5.9,14.5c0.7,0.9,2,2.2,3.7,3.2c2.1,1.4,3.2,1.6,4.9,1.7c1.7-0.1,2.8-0.3,4.9-1.7c1.7-1.1,3-2.4,3.7-3.2c-0.7-0.9-2-2.2-3.7-3.2c-2.1-1.4-3.2-1.6-4.9-1.7c-1.7,0.1-2.8,0.3-4.9,1.7C7.9,12.3,6.6,13.6,5.9,14.5z M14.3,18.4c-1.3,0-2.4-0.6-3.1-1.5c0,0,0,0,0,0c0,0,0,0,0,0c-0.5-0.6-0.7-1.4-0.7-2.3c0-2.1,1.7-3.9,3.9-3.9c1.3,0,2.4,0.6,3.1,1.5c0,0,0,0,0,0c0,0,0,0,0,0c0.5,0.6,0.7,1.4,0.7,2.3C18.2,16.6,16.4,18.4,14.3,18.4z M12.9,16.5c0.4,0.3,0.9,0.4,1.4,0.4c1.3,0,2.4-1.1,2.4-2.4c0-0.3,0-0.5-0.1-0.8L12.9,16.5z M14.3,12.1c-1.3,0-2.4,1.1-2.4,2.4c0,0.3,0,0.5,0.1,0.8l3.6-2.7C15.3,12.3,14.8,12.1,14.3,12.1z"/>
</svg>
