<?xml version="1.0" encoding="utf-8"?>
<!-- Generator: Adobe Illustrator 24.0.2, SVG Export Plug-In . SVG Version: 6.00 Build 0)  -->
<svg version="1.1" id="Layer_1" xmlns="http://www.w3.org/2000/svg" xmlns:xlink="http://www.w3.org/1999/xlink" x="0px" y="0px"
	 viewBox="0 0 29 29" style="enable-background:new 0 0 29 29;" xml:space="preserve">
<style type="text/css">
	.st0{fill:none;stroke:#515151;stroke-width:1.85;stroke-linecap:round;stroke-linejoin:round;stroke-miterlimit:10;}
</style>
<path class="st0" d="M14.5,22c-2.3-0.1-3.9-0.4-7-2.4c-2.6-1.7-4.7-3.9-5.5-5.1c0.8-1.2,2.9-3.4,5.5-5.1c3.1-2,4.7-2.3,7-2.4
	 M14.5,22c2.3-0.1,3.9-0.4,7-2.4c2.6-1.7,4.7-3.9,5.5-5.1c-0.8-1.2-2.9-3.4-5.5-5.1c-3.1-2-4.7-2.3-7-2.4 M18.3,14.5
	c0-2.3-1.8-4.1-4.1-4.1s-4.1,1.8-4.1,4.1s1.8,4.1,4.1,4.1S18.3,16.8,18.3,14.5z M10.9,17l6.6-4.9"/>
</svg>
