<svg xmlns="http://www.w3.org/2000/svg" viewBox="0 0 29 29">
  <path d="M9.65349,20.84008V8.15992h3.90159a5.925,5.925,0,0,1,2.99151.75332,5.253,5.253,0,0,1,2.05966,2.14239,6.608,6.608,0,0,1,.74026,3.157v.58349a6.62657,6.62657,0,0,1-.7272,3.14392,5.20792,5.20792,0,0,1-2.051,2.13368,5.96962,5.96962,0,0,1-2.98715.76638Zm2.61268-10.5639v8.46506H13.529a2.83718,2.83718,0,0,0,2.34269-1.00153,4.52578,4.52578,0,0,0,.82735-2.86523V14.2039a4.59767,4.59767,0,0,0-.80122-2.93055,2.82758,2.82758,0,0,0-2.3427-.99717Z" fill="#515151"/>
</svg>
