<svg xmlns="http://www.w3.org/2000/svg" viewBox="0 0 29 29">
  <path d="M19.52,19.2146801 C19.0554545,19.7709877 18.3987823,20.2025561 17.5499832,20.5093855 C16.7011841,20.8162149 15.7606229,20.9696296 14.7282997,20.9696296 C13.6443603,20.9696296 12.6937626,20.7330556 11.8765067,20.2599074 C11.0592508,19.7867593 10.4283866,19.0999776 9.98391414,18.1995623 C9.53944164,17.299147 9.31147026,16.2410157 9.3,15.0251684 L9.3,14.1735017 C9.3,12.9232435 9.51076599,11.8407379 9.93229798,10.9259848 C10.35383,10.0112318 10.9617536,9.31154602 11.756069,8.82692761 C12.5503844,8.3423092 13.4809091,8.1 14.5476431,8.1 C16.0330415,8.1 17.1944052,8.45414422 18.031734,9.16243266 C18.8690629,9.8707211 19.3651515,10.9016105 19.52,12.255101 L17.0080135,12.255101 C16.8933109,11.5382099 16.6395314,11.0134456 16.2466751,10.6808081 C15.8538187,10.3481706 15.3132828,10.1818519 14.6250673,10.1818519 C13.7475926,10.1818519 13.0794501,10.5116218 12.6206397,11.1711616 C12.1618294,11.8307015 11.9295567,12.8114085 11.9238215,14.1132828 L11.9238215,14.9133333 C11.9238215,16.2266779 12.1732997,17.2188552 12.6722559,17.8898653 C13.1712121,18.5608754 13.9024411,18.8963805 14.8659428,18.8963805 C15.8351796,18.8963805 16.5262626,18.6899158 16.9391919,18.2769865 L16.9391919,16.1177104 L14.5906566,16.1177104 L14.5906566,14.2165152 L19.52,14.2165152 L19.52,19.2146801 Z" fill="#515151" fill-rule="nonzero"></path>
</svg>
