<svg viewBox="0 0 474 166" xmlns="http://www.w3.org/2000/svg">
    <defs>
        <linearGradient x1="24.2247566%" y1="100%" x2="64.7072756%" y2="38.3849174%" id="linearGradient-1">
            <stop stop-color="#6EB486" offset="0%"></stop>
            <stop stop-color="#5173B8" offset="99.9535621%"></stop>
        </linearGradient>
        <linearGradient x1="50.182%" y1="0.000294117647%" x2="50.182%" y2="99.9897059%" id="linearGradient-2">
            <stop stop-color="#000000" stop-opacity="0" offset="40%"></stop>
            <stop stop-color="#000000" stop-opacity="0.5" offset="80%"></stop>
            <stop stop-color="#000000" offset="100%"></stop>
        </linearGradient>
        <linearGradient x1="53.0245169%" y1="70.4338598%" x2="59.8394181%" y2="40.8225903%" id="linearGradient-3">
            <stop stop-color="#000000" stop-opacity="0" offset="0%"></stop>
            <stop stop-color="#000000" stop-opacity="0.2" offset="30.3731425%"></stop>
            <stop stop-color="#000000" stop-opacity="0.8" offset="100%"></stop>
        </linearGradient>
        <radialGradient cx="49.9963696%" cy="49.9454545%" fx="49.9963696%" fy="49.9454545%" r="64.3582645%" gradientTransform="translate(0.5, 0.4995), scale(0.7987, 1), translate(-0.5, -0.4995)" id="radialGradient-4">
            <stop stop-color="#000000" offset="0%"></stop>
            <stop stop-color="#030303" stop-opacity="0.218" offset="68.89%"></stop>
            <stop stop-color="#000000" stop-opacity="0" offset="88.41%"></stop>
        </radialGradient>
        <linearGradient x1="15.6012498%" y1="10.2720291%" x2="87.5850352%" y2="96.5755558%" id="linearGradient-5">
            <stop stop-color="#EF4F79" offset="0%"></stop>
            <stop stop-color="#FEDE7F" offset="100%"></stop>
        </linearGradient>
        <radialGradient cx="50.1217822%" cy="50.0429752%" fx="50.1217822%" fy="50.0429752%" r="64.3582645%" gradientTransform="translate(0.5012, 0.5004), scale(0.7987, 1), translate(-0.5012, -0.5004)" id="radialGradient-6">
            <stop stop-color="#000000" offset="0%"></stop>
            <stop stop-color="#030303" stop-opacity="0.218" offset="68.89%"></stop>
            <stop stop-color="#000000" stop-opacity="0" offset="88.41%"></stop>
        </radialGradient>
    </defs>
    <g id="Page-1" stroke="none" stroke-width="1" fill="none" fill-rule="evenodd">
        <g id="Group" transform="translate(8.8472, 0)">
            <g id="S2LogoMini" transform="translate(341.1528, 0)" fill-rule="nonzero">
                <path d="M57.2004147,0 C79.1004147,0 97.0004147,17.8 97.0004147,39.8 C97.0004147,50.3971894 92.6694119,60.5780806 85.1730794,68.0775145 L41.6464147,110.89985 L84.2004147,110.9 C90.9004147,110.9 96.3004147,116.3 96.3004147,123 C96.3988995,129.598485 91.1627884,134.936065 84.5085271,135.096295 L84.2004147,135.1 L12.1004147,135.1 C5.40041466,135.1 0.000414662352,129.7 0.000414662352,123 C0.000414662352,119.529759 1.44906472,116.408267 3.77667504,114.205213 L68.2094647,50.83085 L68.2394147,50.86 L68.4581085,50.6362671 C74.2991698,44.5179184 74.2132718,34.8128571 68.2004147,28.8 C65.3004147,25.9 61.3004147,24.2 57.2004147,24.2 L57.2004147,0 Z" id="Combined-Shape" fill="url(#linearGradient-1)"></path>
                <path d="M85.3004147,68 L60.6004147,58.3 L68.1004147,50.9 C74.2004147,44.8 74.2004147,34.9 68.1004147,28.8 C65.2004147,25.9 61.2004147,24.2 57.0004147,24.2 L57.0004147,0 C79.1004147,0 97.0004147,17.8 97.0004147,39.7 C97.0004147,50.3 92.8004147,60.5 85.3004147,68 Z" id="Path" fill="url(#linearGradient-2)"></path>
                <polygon id="Path" fill="url(#linearGradient-3)" points="41.7004147 110.9 7.20041466 110.9 60.6004147 58.3 85.2004147 68.1"></polygon>
                <path d="M75.8004147,135.1 L69.7004147,135.1 C63.0004147,135.1 57.6004147,129.7 57.6004147,123 C57.6004147,116.3 63.0004147,110.9 69.7004147,110.9 L75.8004147,110.9 C82.5004147,110.9 87.9004147,116.3 87.9004147,123 C87.9004147,129.7 82.5004147,135.1 75.8004147,135.1 Z" id="Path" fill="url(#radialGradient-4)"></path>
                <path d="M40.0004147,0 L40.0004147,24.2 C31.4004147,24.2 24.4004147,31.2 24.4004147,39.8 C24.4004147,48.3736135 31.3575258,55.3570301 39.9213005,55.3998025 L84.6004147,55.4 L84.6,55.403 L84.8591411,55.4053264 C106.554635,55.75642 124.000415,73.42 124.000415,95.2 C124.000415,117.13824 106.300214,134.999467 84.3855958,135.099577 L84.2004147,135.1 L77.0004147,135.1 C70.3004147,135.1 64.9004147,129.7 64.9004147,123 C64.9004147,116.401515 70.138018,111.063935 76.6967788,110.903705 L77.0004147,110.9 L84.2004147,110.9 C92.8004147,110.9 99.8004147,103.9 99.8004147,95.3 C99.8004147,86.7 92.8004147,79.7 84.2004147,79.7 L84.2,79.697 L40,79.697 L39.9004147,79.7 C17.9004147,79.7 0.100414662,61.9 0.000414662352,39.9 C-0.0995853376,17.9 17.9004147,0 39.9004147,0 L40.0004147,0 Z" id="Combined-Shape" fill="url(#linearGradient-5)"></path>
                <rect id="Rectangle" fill="#EA6376" x="39.9004147" y="0" width="17.2" height="24.2"></rect>
                <path d="M43.7004147,24.2 L37.6004147,24.2 C30.9004147,24.2 25.5004147,18.8 25.5004147,12.1 C25.5004147,5.4 30.9004147,0 37.6004147,0 L43.7004147,0 C50.4004147,0 55.8004147,5.4 55.8004147,12.1 C55.8004147,18.8 50.4004147,24.2 43.7004147,24.2 Z" id="Path" fill="url(#radialGradient-6)"></path>
                <path d="M57.1004147,24.2 L44.4004147,24.2 C37.7004147,24.2 32.3004147,18.8 32.3004147,12.1 C32.3004147,5.4 37.8004147,0 44.4004147,0 L57.1004147,0 C63.8004147,0 69.2004147,5.4 69.2004147,12.1 C69.2004147,18.8 63.9004147,24.2 57.1004147,24.2 C57.2004147,24.2 57.1004147,24.2 57.1004147,24.2 Z" id="Path" fill="#5173B8"></path>
            </g>
            <path d="M249,127.333293 L277.5,127.333293 C293.236325,126.987849 306,114.573408 306,98.8332927 C306,83.0931773 293.240115,70.3332927 277.5,70.3332927 L249,70.3332927" id="n" stroke="#333333" stroke-width="16" stroke-linecap="round" stroke-linejoin="round" transform="translate(277.5, 98.8333) scale(-1, 1) rotate(270) translate(-277.5, -98.8333)"></path>
            <path d="M194.340577,98.7845522 L194.5,127.333293 C210.236325,126.987849 223,114.573408 223,98.8332927 C223,83.0931773 210.240115,70.3332927 194.5,70.3332927 C178.759885,70.3332927 166,83.0933536 166,98.8332927" id="e" stroke="#333333" stroke-width="16" stroke-linecap="round" stroke-linejoin="round" transform="translate(194.5, 98.8333) rotate(270) translate(-194.5, -98.8333)"></path>
            <path d="M67.9174611,142.415832 L126.582539,142.415832 C142.318864,142.070388 155.082539,129.655947 155.082539,113.915832 C155.082539,98.1757162 142.322654,85.4158315 126.582539,85.4158315 C110.842423,85.4158315 98.0825389,98.1758925 98.0825389,113.915832" id="p" stroke="#333333" stroke-width="16" stroke-linecap="round" stroke-linejoin="round" transform="translate(111.5, 113.9158) scale(-1, 1) rotate(270) translate(-111.5, -113.9158)"></path>
            <path d="M28.5,127.333293 C44.2401148,127.333293 57,114.573408 57,98.8332927 C57,83.0931773 44.2401154,70.3332927 28.5,70.3332927 C12.7598846,70.3332927 0,83.0933536 0,98.8332927 C0,117.334607 14.2764048,127.333293 28.5,127.333293 Z" id="o" stroke="#333333" stroke-width="16" stroke-linecap="round" stroke-linejoin="round" transform="translate(28.5, 98.8333) rotate(270) translate(-28.5, -98.8333)"></path>
        </g>
    </g>
</svg>