<svg xmlns="http://www.w3.org/2000/svg" xmlns:xlink="http://www.w3.org/1999/xlink" viewBox="0 0 556.12792 201.92854">
  <defs>
    <linearGradient id="a" x1="46.18713" y1="110.87653" x2="46.18713" y2="58.28163" gradientUnits="userSpaceOnUse">
      <stop offset="0" stop-opacity="0"/>
      <stop offset="0.3" stop-opacity="0.2"/>
      <stop offset="0.62455" stop-opacity="0.8"/>
    </linearGradient>
    <linearGradient id="b" x1="77.04375" y1="0.00022" x2="77.04375" y2="67.99306" gradientUnits="userSpaceOnUse">
      <stop offset="0.4" stop-opacity="0"/>
      <stop offset="0.8" stop-opacity="0.5"/>
      <stop offset="1" stop-opacity="1"/>
    </linearGradient>
    <radialGradient id="c" cx="72.73788" cy="122.9868" r="15.57466" gradientUnits="userSpaceOnUse">
      <stop offset="0"/>
      <stop offset="0.68891" stop-color="#030303" stop-opacity="0.218"/>
      <stop offset="0.88407" stop-opacity="0"/>
    </radialGradient>
    <radialGradient id="d" cx="40.67586" cy="12.11039" r="15.57466" xlink:href="#c"/>
  </defs>
  <g>
    <rect x="-0.89873" y="79.09801" width="90.63725" height="24.22028" transform="translate(-51.20617 57.33029) rotate(-44.52521)" style="fill: #3094d8"/>
    <path d="M85.29286,67.99311,68.16634,50.86632A15.60881,15.60881,0,0,0,57.12911,24.22055V0A39.82956,39.82956,0,0,1,85.29286,67.99311Z" style="fill: #3094d8"/>
    <polygon points="41.693 110.877 7.153 110.877 60.627 58.282 85.221 68.064 41.693 110.877" style="fill: url(#a)"/>
    <path d="M85.29283,67.99306l-24.666-9.71143L68.166,50.86679a15.59868,15.59868,0,0,0-11.037-26.646V.00022A39.804,39.804,0,0,1,85.29283,67.99306Z" style="fill: url(#b)"/>
  </g>
  <path d="M39.90561,79.65871A39.82936,39.82936,0,1,1,39.90561,0V24.22055a15.60881,15.60881,0,0,0,0,31.21761Z" style="fill: #d34040"/>
  <path d="M84.2337,135.09708H12.11028a12.11028,12.11028,0,1,1,0-24.22055H84.2337a12.11028,12.11028,0,1,1,0,24.22055Z" style="fill: #3094d8"/>
  <rect x="39.49667" y="55.43816" width="45.0824" height="24.22055" style="fill: #d34040"/>
  <path d="M84.23374,135.09686V110.87631a15.6088,15.6088,0,0,0,0-31.2176V55.43816a39.82935,39.82935,0,1,1,0,79.6587Z" style="fill: #d34040"/>
  <path d="M75.79567,135.09708H69.68008a12.11028,12.11028,0,0,1,0-24.22055h6.11559a12.11028,12.11028,0,0,1,0,24.22055Z" style="fill: url(#c)"/>
  <path d="M84.23374,135.09686H77.04379a12.11028,12.11028,0,1,1,0-24.22055h7.18995a12.11028,12.11028,0,1,1,0,24.22055Z" style="fill: #d34040"/>
  <rect x="39.90561" width="17.2235" height="24.22055" style="fill: #d34040"/>
  <path d="M43.73366,24.22066H37.61807a12.11028,12.11028,0,0,1,0-24.22055h6.11559a12.11028,12.11028,0,0,1,0,24.22055Z" style="fill: url(#d)"/>
  <path d="M57.12911,24.22055H44.41989A12.11028,12.11028,0,0,1,44.41989,0H57.12911a12.11028,12.11028,0,1,1,0,24.22055Z" style="fill: #3094d8"/>
  <g>
    <path d="M212.34223,94.66094H195.11872a19.10733,19.10733,0,0,0-38.21465,0h-17.2235a36.33083,36.33083,0,1,1,72.66166,0Z" style="fill: #ededed"/>
    <path d="M267.78065,94.66094H250.55714a19.10746,19.10746,0,0,0-38.21491,0H195.11872a36.331,36.331,0,0,1,72.66193,0Z" style="fill: #ededed"/>
    <path d="M148.29232,131.43645a8.61167,8.61167,0,0,1-8.61175-8.61175V94.66094a8.61175,8.61175,0,1,1,17.2235,0V122.8247A8.61167,8.61167,0,0,1,148.29232,131.43645Z" style="fill: #ededed"/>
    <path d="M203.73048,131.43645a8.61168,8.61168,0,0,1-8.61176-8.61175V94.66094a8.61176,8.61176,0,0,1,17.22351,0V122.8247A8.61167,8.61167,0,0,1,203.73048,131.43645Z" style="fill: #ededed"/>
    <path d="M259.1689,131.43645a8.61151,8.61151,0,0,1-8.61176-8.61175V94.66094a8.61175,8.61175,0,0,1,17.22351,0V122.8247A8.6115,8.6115,0,0,1,259.1689,131.43645Z" style="fill: #ededed"/>
  </g>
  <g>
    <path d="M340.621,131.43645a8.6115,8.6115,0,0,1-8.61175-8.61175V95.10562a8.61175,8.61175,0,0,1,17.2235,0V122.8247A8.6115,8.6115,0,0,1,340.621,131.43645Z" style="fill: #ededed"/>
    <path d="M312.90194,131.43645a36.33067,36.33067,0,1,1,36.33083-36.33083,8.61175,8.61175,0,0,1-17.2235,0,19.10752,19.10752,0,1,0-19.10733,19.10732,8.61176,8.61176,0,0,1,0,17.22351Z" style="fill: #ededed"/>
  </g>
  <g>
    <path d="M394.35459,131.09059a8.61175,8.61175,0,1,1,0-17.2235,19.10751,19.10751,0,1,0-19.10733-19.10733,8.61175,8.61175,0,1,1-17.2235,0,36.33067,36.33067,0,1,1,36.33083,36.33083Z" style="fill: #ededed"/>
    <path d="M366.63551,161.3789a8.6115,8.6115,0,0,1-8.61175-8.61175V94.75976a8.61175,8.61175,0,1,1,17.2235,0v58.00739A8.6115,8.6115,0,0,1,366.63551,161.3789Z" style="fill: #ededed"/>
  </g>
  <g>
    <path d="M462.27148,101.39991a22.79218,22.79218,0,1,1,0-45.58436,8.61176,8.61176,0,0,1,0,17.22351,5.56868,5.56868,0,1,0,0,11.13735,8.61175,8.61175,0,1,1,0,17.2235Z" style="fill: #ededed"/>
    <path d="M489.34825,129.7613a8.61176,8.61176,0,0,1,0-17.22351,5.56894,5.56894,0,0,0,0-11.13788,8.61175,8.61175,0,0,1,0-17.2235,22.79245,22.79245,0,1,1,0,45.58489Z" style="fill: #ededed"/>
    <path d="M497.93,73.03906H462.27148a8.61176,8.61176,0,0,1,0-17.22351H497.93a8.61175,8.61175,0,1,1,0,17.22351Z" style="fill: #ededed"/>
    <path d="M489.34825,129.7613H452.2374a8.61176,8.61176,0,0,1,0-17.22351h37.11085a8.61176,8.61176,0,0,1,0,17.22351Z" style="fill: #ededed"/>
    <path d="M489.34825,101.39991H462.27148a8.61175,8.61175,0,1,1,0-17.2235h27.07677a8.61175,8.61175,0,0,1,0,17.2235Z" style="fill: #ededed"/>
  </g>
  <g>
    <path d="M428.30126,171.90076a12.75,12.75,0,1,0-12.75,12.75" style="fill: none;stroke: #ededed;stroke-linecap: round;stroke-miterlimit: 10;stroke-width: 7px"/>
    <line x1="428.30126" y1="171.90076" x2="428.30126" y2="184.65076" style="fill: none;stroke: #ededed;stroke-linecap: round;stroke-miterlimit: 10;stroke-width: 7px"/>
  </g>
  <line x1="440.19356" y1="184.65076" x2="440.19356" y2="142.54437" style="fill: none;stroke: #ededed;stroke-linecap: round;stroke-miterlimit: 10;stroke-width: 7px"/>
  <g>
    <path d="M452.3433,171.87046a12.75,12.75,0,1,1,12.75,12.75" style="fill: none;stroke: #ededed;stroke-linecap: round;stroke-miterlimit: 10;stroke-width: 7px"/>
    <line x1="452.3433" y1="171.90768" x2="452.3433" y2="198.42854" style="fill: none;stroke: #ededed;stroke-linecap: round;stroke-miterlimit: 10;stroke-width: 7px"/>
  </g>
  <g>
    <path d="M515.23561,171.90076a12.75,12.75,0,1,0-25.5,0" style="fill: none;stroke: #ededed;stroke-miterlimit: 10;stroke-width: 7px"/>
    <line x1="489.73561" y1="184.65076" x2="489.73561" y2="142.54437" style="fill: none;stroke: #ededed;stroke-linecap: round;stroke-miterlimit: 10;stroke-width: 7px"/>
    <line x1="515.23561" y1="171.90076" x2="515.23561" y2="184.65076" style="fill: none;stroke: #ededed;stroke-linecap: round;stroke-miterlimit: 10;stroke-width: 7px"/>
  </g>
  <g>
    <path d="M552.62792,171.90076a12.75,12.75,0,1,0-12.75,12.75" style="fill: none;stroke: #ededed;stroke-linecap: round;stroke-miterlimit: 10;stroke-width: 7px"/>
    <line x1="552.62792" y1="171.90076" x2="552.62792" y2="184.65076" style="fill: none;stroke: #ededed;stroke-linecap: round;stroke-miterlimit: 10;stroke-width: 7px"/>
  </g>
</svg>
